<?xml version="1.0" encoding="utf-8"?>
<!-- Generator: Adobe Illustrator 16.0.0, SVG Export Plug-In . SVG Version: 6.00 Build 0)  -->
<!DOCTYPE svg PUBLIC "-//W3C//DTD SVG 1.1//EN" "http://www.w3.org/Graphics/SVG/1.1/DTD/svg11.dtd">
<svg version="1.1" id="layer_1" xmlns="http://www.w3.org/2000/svg" xmlns:xlink="http://www.w3.org/1999/xlink" x="0px" y="0px"
	 width="161.963px" height="140.264px" viewBox="173.115 0 161.963 140.264" enable-background="new 173.115 0 161.963 140.264"
	 xml:space="preserve">
<g>
	<polygon fill="#3F51B5" points="255.35,43.212 255.35,84.434 280.582,84.434 	"/>
	<polygon fill="#78909C" points="281.674,86.219 255.35,86.219 255.35,108.593 295.371,108.593 	"/>
	<polygon fill="#78909C" points="230.975,-0.028 238.219,11.806 247.207,11.806 251.797,-0.028 	"/>
	<polygon fill="#78909C" points="231.708,84.434 231.708,56.69 220.946,84.434 	"/>
	<polygon fill="#FF9800" points="182.418,86.219 203.902,123.427 218.34,86.219 	"/>
	<polygon fill="#3F51B5" points="231.708,86.219 220.253,86.219 205.048,125.412 213.607,140.236 294.584,140.236 301.418,128.401 231.708,128.401 	"/>
	<polygon fill="#3F51B5" points="325.774,86.219 283.768,86.219 297.465,108.593 312.856,108.593 	"/>
	<polygon fill="#9CCC65" points="219.031,84.434 231.708,51.757 231.708,11.806 236.127,11.806 228.885,-0.028 213.607,-0.028 173.114,70.105 181.386,84.434 	"/>
	<polygon fill="#FF9800" points="249.121,11.806 255.35,11.806 255.35,39.792 282.676,84.434 326.805,84.434 335.076,70.105 294.584,-0.028 253.711,-0.028 	"/>
</g>
</svg>
